PathFileType	4	(X/Y/Z)	Kaydara	
DataRate	CameraRate	NumFrames	NumMarkers	Units	OrigDataRate	OrigDataStartFrame	OrigNumFrames	
60.00	60.00	5	74	mm	60.00	1801	201	
Frame#	Time	Z_lasi			Z_rasi			Z_rpsi			Z_lpsi			Z_fneck			Z_bneck			Z_fhead			Z_rhead			Z_lhead			Z_rshld			Z_relbtop			Z_relbext			Z_relblow			Z_rwrext			Z_rwrtop			Z_rwrlow			Z_lshld			Z_lelbext			Z_lelblow			Z_lelbtop			Z_lwrext			Z_lwrtop			Z_lwrlow			Z_rtopleg			Z_ltopleg			Z_rkneefr			Z_rkneebk			Z_rkneeis			Z_lkneefr			Z_lknssbk			Z_lkneeis			Z_rankfr			Z_rankis			Z_rankbk			Z_lankfr			Z_lankbk			Z_lankis			A_lasi			A_rasi			A_rpsi			A_lpsi			A_fneck			A_bneck			A_fhead			A_rhead			A_lhead			A_rshld			A_relbtop			A_relbext			A_relblow			A_rwrext			A_rwrtop			A_rwrlow			A_lshld			A_lelbext			A_lelblow			A_lelbtop			A_lwrext			A_lwrtop			A_lwrlow			A_rtopleg			A_ltopleg			A_rkneefr			A_rkneebk			A_rkneeis			A_lkneefr			A_lknssbk			A_lkneeis			A_rankfr			A_rankis			A_rankbk			A_lankfr			A_lankbk			A_lankis			
		X1	Y1	Z1	X2	Y2	Z2	X3	Y3	Z3	X4	Y4	Z4	X5	Y5	Z5	X6	Y6	Z6	X7	Y7	Z7	X8	Y8	Z8	X9	Y9	Z9	X10	Y10	Z10	X11	Y11	Z11	X12	Y12	Z12	X13	Y13	Z13	X14	Y14	Z14	X15	Y15	Z15	X16	Y16	Z16	X17	Y17	Z17	X18	Y18	Z18	X19	Y19	Z19	X20	Y20	Z20	X21	Y21	Z21	X22	Y22	Z22	X23	Y23	Z23	X24	Y24	Z24	X25	Y25	Z25	X26	Y26	Z26	X27	Y27	Z27	X28	Y28	Z28	X29	Y29	Z29	X30	Y30	Z30	X31	Y31	Z31	X32	Y32	Z32	X33	Y33	Z33	X34	Y34	Z34	X35	Y35	Z35	X36	Y36	Z36	X37	Y37	Z37	X38	Y38	Z38	X39	Y39	Z39	X40	Y40	Z40	X41	Y41	Z41	X42	Y42	Z42	X43	Y43	Z43	X44	Y44	Z44	X45	Y45	Z45	X46	Y46	Z46	X47	Y47	Z47	X48	Y48	Z48	X49	Y49	Z49	X50	Y50	Z50	X51	Y51	Z51	X52	Y52	Z52	X53	Y53	Z53	X54	Y54	Z54	X55	Y55	Z55	X56	Y56	Z56	X57	Y57	Z57	X58	Y58	Z58	X59	Y59	Z59	X60	Y60	Z60	X61	Y61	Z61	X62	Y62	Z62	X63	Y63	Z63	X64	Y64	Z64	X65	Y65	Z65	X66	Y66	Z66	X67	Y67	Z67	X68	Y68	Z68	X69	Y69	Z69	X70	Y70	Z70	X71	Y71	Z71	X72	Y72	Z72	X73	Y73	Z73	X74	Y74	Z74	

1	30.000	-236.97121	1080.54688	536.60362	-306.17630	1074.52675	340.25036	-144.89683	1102.37808	243.59810	-55.62579	1102.96318	473.66962	-280.17097	1427.41913	407.06055	-180.30123	1508.39233	406.10287	-398.07056	1615.18494	420.31712	-243.43504	1649.39072	363.09727	-250.08467	1607.92557	504.94186	-253.33029	1422.10068	193.53258	-217.92681	1099.44229	120.33260	-186.87162	1084.69948	171.71843	-280.14790	1110.74242	164.74768	-311.82072	871.67633	144.93048	-342.50534	886.57890	175.53854	-316.19795	883.89107	210.15791	-153.17812	1447.83203	576.18111	-91.47043	1131.97601	587.75909	-147.41546	1151.31279	654.78897	-78.73049	1153.64464	654.86519	-206.92944	894.16565	652.97607	-191.62569	888.35968	697.52167	-146.01376	884.96429	685.05318	-192.97918	907.31911	218.00236	-146.14474	899.93202	578.84666	-221.40463	410.47348	337.50435	-153.33797	436.70990	285.18394	-159.03426	435.30117	409.94030	-210.69899	450.36232	601.68415	-112.03145	482.50618	564.93576	-221.96571	445.56076	507.95189	-167.42016	168.96307	351.38123	-145.87550	174.48910	414.95041	-89.90211	166.26703	349.33990	-107.78891	174.43602	578.15399	-72.16648	184.12745	508.61164	-150.31898	180.77316	518.54256	-989.89983	1034.58122	493.59356	-986.63399	1041.30447	653.22037	-1148.91106	1036.80313	662.05643	-1113.80585	1040.70694	480.65903	-1053.48091	1381.51169	585.08358	-1192.29156	1409.66354	573.82351	-1001.62819	1594.70673	588.04249	-1143.76991	1558.66089	678.43079	-1150.57053	1557.97821	515.43495	-1147.90894	1347.24792	756.96808	-1125.21477	1053.67424	785.93887	-1182.35168	1045.22079	756.17699	-1114.91547	1043.76373	728.63548	-1099.09386	806.54732	806.17500	-1056.07529	819.72237	807.91489	-1050.50156	820.33447	768.06915	-1078.72070	1357.16064	404.77875	-1108.15193	1045.57076	382.89013	-1040.61279	1054.02336	407.50866	-1065.07477	1052.65030	358.99437	-1013.91739	828.70438	396.78421	-1017.32101	831.14876	354.10870	-973.40736	838.71498	364.83555	-1097.52228	876.16776	746.55853	-1038.71353	890.13924	411.20964	-1037.24480	454.18819	662.95700	-1149.28703	486.93687	697.04742	-1117.05002	485.86315	581.97395	-988.55904	464.90093	528.79559	-1075.23758	476.42056	434.07780	-1095.29976	474.95998	558.34652	-1107.06268	166.75411	679.41261	-1133.16940	162.93592	610.99453	-1187.78938	153.49934	675.16808	-1060.72441	162.57206	463.22697	-1122.12425	170.07486	429.08901	-1119.39003	170.74963	518.42243 
2	30.017	-236.30375	1080.62180	536.82747	-306.83537	1074.17809	340.89828	-146.12692	1102.14882	243.30833	-55.31890	1103.05138	472.85542	-279.58704	1427.25357	407.92114	-180.54193	1508.44696	404.94499	-398.32737	1613.65234	427.38518	-246.62148	1649.52759	363.34141	-246.53351	1607.24518	505.16087	-255.02920	1421.62842	193.25024	-218.41297	1098.90747	120.67657	-186.94036	1084.53934	171.98610	-280.45343	1109.93385	165.30666	-310.46635	870.42709	145.95148	-341.16570	885.22255	176.85492	-314.66908	882.68639	211.40038	-152.15357	1448.04718	575.23426	-91.75169	1131.93764	587.64351	-147.01457	1151.86913	654.75777	-78.40984	1153.83606	654.60831	-209.46697	895.68123	654.36829	-193.93589	889.84253	698.94600	-148.46273	885.83206	686.09116	-194.12006	907.16774	218.11922	-145.24752	900.17380	578.90453	-221.81726	410.39513	337.86217	-153.87317	436.65623	285.22644	-159.12704	435.19329	410.00038	-210.61533	450.82405	603.94341	-111.73701	482.93831	566.24390	-222.18439	445.76633	510.45937	-167.53529	168.91739	351.46126	-145.90810	174.43054	415.00496	-90.06822	166.25599	349.33338	-107.02326	175.13624	579.75605	-71.24433	185.00988	509.97993	-149.01903	181.03247	520.13214	-989.85924	1034.46671	493.66417	-986.80176	1041.09924	653.22731	-1149.39171	1037.31995	661.87424	-1113.72620	1041.16539	480.53200	-1053.19481	1381.84677	585.12299	-1192.13638	1410.03815	573.36323	-1001.73935	1595.05463	588.67241	-1144.29161	1558.79700	678.44162	-1150.28297	1558.50174	515.43861	-1147.95609	1347.63275	756.77628	-1125.92117	1054.09569	785.82756	-1183.19656	1045.74364	756.19431	-1115.99991	1044.03275	728.70926	-1100.38132	806.94977	806.26320	-1057.16331	820.04333	807.71400	-1052.27890	820.46516	768.13347	-1078.01842	1357.56485	404.71367	-1107.90268	1046.12328	382.48600	-1040.48645	1054.42307	407.32662	-1064.83627	1053.07129	358.77949	-1014.43367	829.10629	396.59527	-1017.44186	831.44531	353.90083	-973.69751	838.93112	364.92321	-1097.92358	876.76498	746.27075	-1039.10141	890.16327	411.00624	-1038.29956	454.16859	663.00758	-1150.29747	486.76605	696.80801	-1118.04588	485.69664	581.80382	-988.90068	465.08701	528.10375	-1076.20529	476.49509	433.79425	-1096.43394	475.00282	557.99461	-1107.36679	166.78530	679.35898	-1133.37997	162.87855	610.92743	-1188.14499	153.29725	675.07286	-1061.00815	162.66796	463.23666	-1122.36649	170.00732	428.92647	-1119.66347	170.69481	518.24280 
3	30.033	-235.58289	1080.56862	537.16633	-307.40614	1073.83408	341.70982	-147.45757	1101.92101	243.12065	-55.03816	1103.03261	472.05914	-278.96477	1426.97388	409.11194	-180.84112	1508.53424	403.88409	-398.13824	1612.24380	434.57977	-249.82946	1649.55353	363.81966	-242.66401	1606.93573	505.40997	-256.88814	1421.09726	193.22731	-218.93877	1098.47504	120.89011	-187.20346	1084.31946	172.12626	-280.64322	1109.02176	165.93805	-309.19006	869.40483	147.15656	-339.80145	883.98766	178.23330	-313.01384	881.60027	212.57757	-150.89629	1448.17535	574.36146	-91.89122	1131.78528	587.53613	-146.91835	1152.56805	655.06172	-77.98458	1153.87589	654.37660	-211.87849	897.20100	655.90546	-196.09352	891.35201	700.38017	-150.75994	886.77895	687.18140	-195.19510	907.03918	218.24642	-144.19274	900.32166	579.02756	-222.08019	410.32890	338.15472	-154.23472	436.62792	285.26287	-159.05657	435.09048	410.06222	-210.57798	451.22856	606.34571	-112.27018	483.22067	568.33389	-222.78660	445.97275	512.90466	-167.60859	168.88306	351.47461	-145.91160	174.45999	415.09102	-90.18994	166.25034	349.26529	-106.19846	175.86590	581.35380	-70.89298	185.87011	511.46069	-148.27681	181.45350	521.87744	-989.78981	1034.40468	493.80890	-987.02835	1040.94788	653.35587	-1149.82803	1037.85927	661.67755	-1113.63686	1041.60172	480.44376	-1052.85835	1382.10220	585.11024	-1191.96083	1410.32822	572.88548	-1001.82457	1595.53619	589.55933	-1144.85260	1558.87726	678.39081	-1149.98756	1559.00436	515.32581	-1148.12439	1348.04260	756.56006	-1127.03423	1054.40773	785.85884	-1184.04411	1046.31111	756.11664	-1116.78444	1044.43916	728.54561	-1101.55655	807.39845	806.37154	-1058.47168	820.33165	807.70035	-1053.73375	820.59914	767.98950	-1077.38777	1357.94220	404.69391	-1107.90276	1046.51924	382.25124	-1040.34370	1054.72717	407.11388	-1064.58801	1053.44032	358.52112	-1014.76402	829.25896	396.51131	-1017.56042	831.71188	353.73016	-973.93028	839.09698	364.96685	-1098.94196	876.88210	746.09711	-1039.48929	890.18730	410.80276	-1039.27383	454.14257	662.96783	-1151.27716	486.60950	696.58661	-1119.04884	485.69660	581.74007	-990.36308	465.13737	527.95620	-1077.36282	476.61098	433.36456	-1097.68883	475.04360	557.65911	-1107.75291	166.88025	679.33411	-1133.69011	162.80912	610.87524	-1188.56949	153.11900	674.96971	-1061.33972	162.75999	463.24043	-1122.55241	169.96851	428.82519	-1119.96460	170.62569	518.01701 
4	30.050	-234.75737	1080.46219	537.63973	-307.90144	1073.51761	342.63176	-148.65568	1101.74217	242.96898	-54.74051	1102.93106	471.33823	-278.48324	1426.72241	410.64224	-181.01885	1508.56842	403.02788	-397.43809	1610.75134	441.66943	-252.99284	1649.52026	364.40166	-238.97137	1606.66077	505.53581	-258.67239	1420.64545	193.40275	-219.43581	1098.10806	120.93395	-187.25534	1084.25064	171.92030	-280.92447	1108.39668	166.56078	-307.95191	868.53203	148.32918	-338.46676	882.88536	179.60476	-310.05323	880.43724	213.54616	-150.04376	1448.12256	573.67081	-91.97828	1131.55037	587.38564	-146.40465	1153.02925	655.56023	-77.41001	1153.80089	654.09645	-214.43270	898.76884	657.65854	-198.21251	892.80525	701.84769	-153.17227	887.53624	688.28804	-196.31506	907.02583	218.56607	-143.38226	900.38216	579.17797	-222.21184	410.32032	338.46210	-154.54906	436.66054	285.34309	-158.11273	434.79630	409.54514	-210.75605	451.59527	608.85849	-113.03704	483.40664	570.61684	-223.43153	446.05835	515.49313	-167.69997	168.87291	351.59138	-145.85279	174.45494	415.14465	-90.30389	166.25431	349.21658	-106.22126	176.49935	582.99187	-70.66140	186.77118	513.06847	-148.16247	181.94267	523.38577	-989.72366	1034.35280	493.96774	-987.28172	1040.80223	653.46451	-1150.31975	1038.36243	661.53175	-1113.50464	1042.00066	480.36289	-1052.47643	1382.38098	585.11276	-1191.74538	1410.59067	572.31056	-1001.99936	1595.97305	590.51384	-1145.42953	1558.97995	678.22899	-1149.52187	1559.46884	515.11452	-1148.09799	1348.32870	756.38214	-1127.83943	1054.73923	785.93033	-1184.95697	1046.85539	756.12381	-1117.65526	1044.72755	728.72597	-1102.70370	807.86789	806.40854	-1059.43573	820.62164	807.55806	-1055.27863	821.09138	767.51274	-1076.72028	1358.23593	404.63608	-1107.57904	1046.82266	381.70410	-1040.21729	1054.91631	407.02530	-1064.30275	1053.70262	358.34702	-1015.65010	829.87984	396.42815	-1017.70172	831.92734	353.50193	-974.17442	839.15718	365.05356	-1100.49660	877.00043	746.22437	-1039.88411	890.25711	410.61165	-1040.09628	454.13006	662.71645	-1152.18300	486.51386	696.40007	-1119.95041	485.59639	581.59801	-991.92871	465.17662	527.73720	-1078.61206	476.74000	432.88792	-1099.15459	475.13855	557.32101	-1108.18588	166.87126	679.40498	-1133.98338	162.73254	610.82405	-1188.98354	153.05828	674.97620	-1061.74644	162.89700	463.15811	-1122.85683	169.82466	428.65986	-1120.49759	170.61018	517.74117 
5	30.067	-233.89282	1080.29419	538.19469	-308.48536	1073.20053	343.79059	-149.83729	1101.60255	242.95296	-54.35247	1102.85507	470.68962	-278.18277	1426.55228	412.42321	-181.09882	1508.48465	402.33547	-396.67706	1609.33014	448.56087	-256.27645	1649.50272	364.96208	-235.24435	1606.65314	505.55378	-260.46549	1420.22751	193.82042	-220.16062	1097.83615	120.89438	-187.28535	1084.25636	171.51463	-281.18414	1107.79808	167.12646	-306.88934	867.76352	149.46637	-337.13703	881.93344	181.07960	-306.02993	879.18869	214.45141	-148.38023	1448.03436	573.18146	-91.97722	1131.25061	587.22870	-145.66625	1153.47595	655.77644	-76.64867	1153.60825	653.70132	-216.88999	900.24094	659.38469	-200.22625	894.21280	703.32626	-155.38195	888.32581	689.24057	-197.62175	907.04956	219.20839	-142.38983	900.38620	579.44141	-222.27509	410.31822	338.72776	-154.82862	436.66481	285.52631	-152.84480	433.24512	406.38443	-211.60170	451.94130	611.47667	-114.02296	483.62038	572.86629	-224.49080	446.48083	518.25172	-167.77258	168.88174	351.70601	-145.77400	174.44113	415.24418	-90.39628	166.24695	349.16920	-106.35077	177.23845	584.61273	-70.60332	187.76649	514.57783	-148.22487	182.64330	524.92073	-989.66843	1034.27406	494.10931	-987.57584	1040.76866	653.63922	-1150.73021	1038.67821	661.40793	-1113.38791	1042.47147	480.43419	-1052.11472	1382.69989	585.15705	-1191.39137	1410.75516	571.77002	-1002.14897	1596.28052	591.30089	-1146.07872	1559.01184	678.03123	-1149.16786	1559.84512	514.92218	-1148.24966	1348.80951	756.12137	-1128.51929	1055.15915	785.93384	-1185.63004	1047.21703	756.03539	-1118.37486	1044.98619	728.69080	-1103.61122	808.19183	806.64703	-1060.43961	821.03073	807.48215	-1056.73035	821.44699	767.02232	-1075.94925	1358.48053	404.51183	-1107.41127	1047.33543	381.63883	-1040.00992	1055.06790	406.88301	-1063.93959	1053.95363	358.13747	-1015.54733	829.58946	396.16600	-1017.89017	832.07344	353.30803	-974.33876	839.18259	365.09289	-1100.82901	877.22488	745.73135	-1040.39688	890.62408	410.43819	-1040.98679	454.07265	662.82028	-1153.04199	486.36532	696.25473	-1120.86510	485.56248	581.49605	-993.59909	465.25352	527.48089	-1079.98245	476.87492	432.36919	-1100.70419	475.19451	556.90300	-1108.34618	166.84624	679.24309	-1134.24805	162.66521	610.77606	-1189.24599	152.92653	674.91577	-1062.19070	163.06946	463.03337	-1123.25516	169.68412	428.42644	-1121.12473	170.68594	517.60101 
